<svg xmlns="http://www.w3.org/2000/svg" xmlns:xlink="http://www.w3.org/1999/xlink" id="processonSvg1000" viewBox="129.0 66.0 638.0 1134.0" width="638.0" height="1134.0"><defs id="ProcessOnDefs1001"><marker id="ProcessOnMarker1017" markerUnits="userSpaceOnUse" orient="auto" markerWidth="16.23606797749979" markerHeight="10.550836550532098" viewBox="-1.0 -1.3763819204711736 16.23606797749979 10.550836550532098" refX="-1.0" refY="3.8990363547948754"><path id="ProcessOnPath1018" d="M12.0 3.8990363547948754L0.0 7.798072709589751V0.0Z" stroke="#323232" stroke-width="2.0" fill="#323232" transform="matrix(1.0,0.0,0.0,1.0,0.0,0.0)"/></marker><marker id="ProcessOnMarker1049" markerUnits="userSpaceOnUse" orient="auto" markerWidth="16.23606797749979" markerHeight="10.550836550532098" viewBox="-1.0 -1.3763819204711736 16.23606797749979 10.550836550532098" refX="-1.0" refY="3.8990363547948754"><path id="ProcessOnPath1050" d="M12.0 3.8990363547948754L0.0 7.798072709589751V0.0Z" stroke="#323232" stroke-width="2.0" fill="#323232" transform="matrix(1.0,0.0,0.0,1.0,0.0,0.0)"/></marker><marker id="ProcessOnMarker1063" markerUnits="userSpaceOnUse" orient="auto" markerWidth="16.23606797749979" markerHeight="10.550836550532098" viewBox="-1.0 -1.3763819204711736 16.23606797749979 10.550836550532098" refX="-1.0" refY="3.8990363547948754"><path id="ProcessOnPath1064" d="M12.0 3.8990363547948754L0.0 7.798072709589751V0.0Z" stroke="#323232" stroke-width="2.0" fill="#323232" transform="matrix(1.0,0.0,0.0,1.0,0.0,0.0)"/></marker><marker id="ProcessOnMarker1076" markerUnits="userSpaceOnUse" orient="auto" markerWidth="16.23606797749979" markerHeight="10.550836550532098" viewBox="-1.0 -1.3763819204711736 16.23606797749979 10.550836550532098" refX="-1.0" refY="3.8990363547948754"><path id="ProcessOnPath1077" d="M12.0 3.8990363547948754L0.0 7.798072709589751V0.0Z" stroke="#323232" stroke-width="2.0" fill="#323232" transform="matrix(1.0,0.0,0.0,1.0,0.0,0.0)"/></marker><marker id="ProcessOnMarker1085" markerUnits="userSpaceOnUse" orient="auto" markerWidth="16.23606797749979" markerHeight="10.550836550532098" viewBox="-1.0 -1.3763819204711736 16.23606797749979 10.550836550532098" refX="-1.0" refY="3.8990363547948754"><path id="ProcessOnPath1086" d="M12.0 3.8990363547948754L0.0 7.798072709589751V0.0Z" stroke="#323232" stroke-width="2.0" fill="#323232" transform="matrix(1.0,0.0,0.0,1.0,0.0,0.0)"/></marker><marker id="ProcessOnMarker1089" markerUnits="userSpaceOnUse" orient="auto" markerWidth="16.23606797749979" markerHeight="10.550836550532098" viewBox="-1.0 -1.3763819204711736 16.23606797749979 10.550836550532098" refX="-1.0" refY="3.8990363547948754"><path id="ProcessOnPath1090" d="M12.0 3.8990363547948754L0.0 7.798072709589751V0.0Z" stroke="#323232" stroke-width="2.0" fill="#323232" transform="matrix(1.0,0.0,0.0,1.0,0.0,0.0)"/></marker><marker id="ProcessOnMarker1093" markerUnits="userSpaceOnUse" orient="auto" markerWidth="16.23606797749979" markerHeight="10.550836550532098" viewBox="-1.0 -1.3763819204711736 16.23606797749979 10.550836550532098" refX="-1.0" refY="3.8990363547948754"><path id="ProcessOnPath1094" d="M12.0 3.8990363547948754L0.0 7.798072709589751V0.0Z" stroke="#323232" stroke-width="2.0" fill="#323232" transform="matrix(1.0,0.0,0.0,1.0,0.0,0.0)"/></marker><marker id="ProcessOnMarker1100" markerUnits="userSpaceOnUse" orient="auto" markerWidth="16.23606797749979" markerHeight="10.550836550532098" viewBox="-1.0 -1.3763819204711736 16.23606797749979 10.550836550532098" refX="-1.0" refY="3.8990363547948754"><path id="ProcessOnPath1101" d="M12.0 3.8990363547948754L0.0 7.798072709589751V0.0Z" stroke="#323232" stroke-width="2.0" fill="#323232" transform="matrix(1.0,0.0,0.0,1.0,0.0,0.0)"/></marker><marker id="ProcessOnMarker1110" markerUnits="userSpaceOnUse" orient="auto" markerWidth="16.23606797749979" markerHeight="10.550836550532098" viewBox="-1.0 -1.3763819204711736 16.23606797749979 10.550836550532098" refX="-1.0" refY="3.8990363547948754"><path id="ProcessOnPath1111" d="M12.0 3.8990363547948754L0.0 7.798072709589751V0.0Z" stroke="#323232" stroke-width="2.0" fill="#323232" transform="matrix(1.0,0.0,0.0,1.0,0.0,0.0)"/></marker><marker id="ProcessOnMarker1126" markerUnits="userSpaceOnUse" orient="auto" markerWidth="16.23606797749979" markerHeight="10.550836550532098" viewBox="-1.0 -1.3763819204711736 16.23606797749979 10.550836550532098" refX="-1.0" refY="3.8990363547948754"><path id="ProcessOnPath1127" d="M12.0 3.8990363547948754L0.0 7.798072709589751V0.0Z" stroke="#323232" stroke-width="2.0" fill="#323232" transform="matrix(1.0,0.0,0.0,1.0,0.0,0.0)"/></marker><marker id="ProcessOnMarker1130" markerUnits="userSpaceOnUse" orient="auto" markerWidth="16.23606797749979" markerHeight="10.550836550532098" viewBox="-1.0 -1.3763819204711736 16.23606797749979 10.550836550532098" refX="-1.0" refY="3.8990363547948754"><path id="ProcessOnPath1131" d="M12.0 3.8990363547948754L0.0 7.798072709589751V0.0Z" stroke="#323232" stroke-width="2.0" fill="#323232" transform="matrix(1.0,0.0,0.0,1.0,0.0,0.0)"/></marker><marker id="ProcessOnMarker1137" markerUnits="userSpaceOnUse" orient="auto" markerWidth="16.23606797749979" markerHeight="10.550836550532098" viewBox="-1.0 -1.3763819204711736 16.23606797749979 10.550836550532098" refX="-1.0" refY="3.8990363547948754"><path id="ProcessOnPath1138" d="M12.0 3.8990363547948754L0.0 7.798072709589751V0.0Z" stroke="#323232" stroke-width="2.0" fill="#323232" transform="matrix(1.0,0.0,0.0,1.0,0.0,0.0)"/></marker><marker id="ProcessOnMarker1145" markerUnits="userSpaceOnUse" orient="auto" markerWidth="16.23606797749979" markerHeight="10.550836550532098" viewBox="-1.0 -1.3763819204711736 16.23606797749979 10.550836550532098" refX="-1.0" refY="3.8990363547948754"><path id="ProcessOnPath1146" d="M12.0 3.8990363547948754L0.0 7.798072709589751V0.0Z" stroke="#323232" stroke-width="2.0" fill="#323232" transform="matrix(1.0,0.0,0.0,1.0,0.0,0.0)"/></marker><marker id="ProcessOnMarker1149" markerUnits="userSpaceOnUse" orient="auto" markerWidth="16.23606797749979" markerHeight="10.550836550532098" viewBox="-1.0 -1.3763819204711736 16.23606797749979 10.550836550532098" refX="-1.0" refY="3.8990363547948754"><path id="ProcessOnPath1150" d="M12.0 3.8990363547948754L0.0 7.798072709589751V0.0Z" stroke="#323232" stroke-width="2.0" fill="#323232" transform="matrix(1.0,0.0,0.0,1.0,0.0,0.0)"/></marker><marker id="ProcessOnMarker1153" markerUnits="userSpaceOnUse" orient="auto" markerWidth="16.23606797749979" markerHeight="10.550836550532098" viewBox="-1.0 -1.3763819204711736 16.23606797749979 10.550836550532098" refX="-1.0" refY="3.8990363547948754"><path id="ProcessOnPath1154" d="M12.0 3.8990363547948754L0.0 7.798072709589751V0.0Z" stroke="#323232" stroke-width="2.0" fill="#323232" transform="matrix(1.0,0.0,0.0,1.0,0.0,0.0)"/></marker><marker id="ProcessOnMarker1157" markerUnits="userSpaceOnUse" orient="auto" markerWidth="16.23606797749979" markerHeight="10.550836550532098" viewBox="-1.0 -1.3763819204711736 16.23606797749979 10.550836550532098" refX="-1.0" refY="3.8990363547948754"><path id="ProcessOnPath1158" d="M12.0 3.8990363547948754L0.0 7.798072709589751V0.0Z" stroke="#323232" stroke-width="2.0" fill="#323232" transform="matrix(1.0,0.0,0.0,1.0,0.0,0.0)"/></marker></defs><g id="ProcessOnG1002"><path id="ProcessOnPath1003" d="M129.0 66.0H767.0V1200.0H129.0V66.0Z" fill="none"/><g id="ProcessOnG1004"><g id="ProcessOnG1005" transform="matrix(1.0,0.0,0.0,1.0,405.625,86.0)" opacity="1.0"><path id="ProcessOnPath1006" d="M0.0 26.5C0.0 -8.833333333333334 109.0 -8.833333333333334 109.0 26.5C109.0 61.833333333333336 0.0 61.833333333333336 0.0 26.5Z" stroke="#323232" stroke-width="2.0" stroke-dasharray="none" opacity="1.0" fill="#ffffff"/><g id="ProcessOnG1007" transform="matrix(1.0,0.0,0.0,1.0,10.0,15.25)"><text id="ProcessOnText1008" fill="#000000" font-size="18" x="43.5" y="18.45" font-family="微软雅黑" font-weight="bold" font-style="normal" text-decoration="none" family="微软雅黑" text-anchor="middle" size="18">开始</text></g></g><g id="ProcessOnG1009" transform="matrix(1.0,0.0,0.0,1.0,364.6875,173.0)" opacity="1.0"><path id="ProcessOnPath1010" d="M0.0 40.0L96.3125 0.0L192.625 40.0L96.3125 80.0Z" stroke="#323232" stroke-width="2.0" stroke-dasharray="none" opacity="1.0" fill="#ffffff"/><g id="ProcessOnG1011" transform="matrix(1.0,0.0,0.0,1.0,10.0,16.025)"><text id="ProcessOnText1012" fill="#000000" font-size="13" x="85.3125" y="13.325" font-family="微软雅黑" font-weight="bold" font-style="normal" text-decoration="none" family="微软雅黑" text-anchor="middle" size="13">用户</text><text id="ProcessOnText1013" fill="#000000" font-size="13" x="85.3125" y="29.575" font-family="微软雅黑" font-weight="bold" font-style="normal" text-decoration="none" family="微软雅黑" text-anchor="middle" size="13">是否授权使用</text><text id="ProcessOnText1014" fill="#000000" font-size="13" x="85.3125" y="45.825" font-family="微软雅黑" font-weight="bold" font-style="normal" text-decoration="none" family="微软雅黑" text-anchor="middle" size="13">个人信息</text></g></g><g id="ProcessOnG1015"><path id="ProcessOnPath1016" d="M461.0 253.0L461.0 283.5L463.0 283.5L463.0 298.7639320225002" stroke="#323232" stroke-width="2.0" stroke-dasharray="none" fill="none" marker-end="url(#ProcessOnMarker1017)"/><g id="ProcessOnG1019" transform="matrix(1.0,0.0,0.0,1.0,461.0,268.75696601125014)"><path id="ProcessOnPath1020" d="M0 0H26.0V16.25H0Z" fill="#fff" transform="matrix(1.0,0.0,0.0,1.0,-13.0,0.0)"/><text id="ProcessOnText1021" fill="#000000" font-size="13" x="0.0" y="13.325" font-family="微软雅黑" font-weight="normal" font-style="normal" text-decoration="none" family="微软雅黑" text-anchor="middle" size="13">允许</text></g></g><g id="ProcessOnG1022" transform="matrix(1.0,0.0,0.0,1.0,378.5,314.0)" opacity="1.0"><path id="ProcessOnPath1023" d="M0.0 0.0L169.0 0.0L169.0 29.0L0.0 29.0Z" stroke="#323232" stroke-width="2.0" stroke-dasharray="none" opacity="1.0" fill="#ffffff"/><g id="ProcessOnG1024" transform="matrix(1.0,0.0,0.0,1.0,10.0,6.375)"><text id="ProcessOnText1025" fill="#000000" font-size="13" x="73.5" y="13.325" font-family="微软雅黑" font-weight="bold" font-style="normal" text-decoration="none" family="微软雅黑" text-anchor="middle" size="13">登录，获取token</text></g></g><g id="ProcessOnG1026" transform="matrix(1.0,0.0,0.0,1.0,149.0,717.0)" opacity="1.0"><path id="ProcessOnPath1027" d="M0.0 0.0L86.0 0.0L86.0 70.0L0.0 70.0Z" stroke="#323232" stroke-width="2.0" stroke-dasharray="none" opacity="1.0" fill="#ffffff"/><g id="ProcessOnG1028" transform="matrix(1.0,0.0,0.0,1.0,10.0,10.625)"><text id="ProcessOnText1029" fill="#000000" font-size="13" x="32.0" y="13.325" font-family="微软雅黑" font-weight="normal" font-style="normal" text-decoration="none" family="微软雅黑" text-anchor="middle" size="13">未登录</text><text id="ProcessOnText1030" fill="#000000" font-size="13" x="32.0" y="29.575" font-family="微软雅黑" font-weight="normal" font-style="normal" text-decoration="none" family="微软雅黑" text-anchor="middle" size="13">无userInfo</text><text id="ProcessOnText1031" fill="#000000" font-size="13" x="32.0" y="45.825" font-family="微软雅黑" font-weight="normal" font-style="normal" text-decoration="none" family="微软雅黑" text-anchor="middle" size="13">无token</text></g></g><g id="ProcessOnG1032" transform="matrix(1.0,0.0,0.0,1.0,416.3125,386.0)" opacity="1.0"><path id="ProcessOnPath1033" d="M0.0 0.0L93.3125 0.0L93.3125 64.0L0.0 64.0Z" stroke="#323232" stroke-width="2.0" stroke-dasharray="none" opacity="1.0" fill="#ffffff"/><g id="ProcessOnG1034" transform="matrix(1.0,0.0,0.0,1.0,10.0,7.625)"><text id="ProcessOnText1035" fill="#000000" font-size="13" x="35.65625" y="13.325" font-family="微软雅黑" font-weight="normal" font-style="normal" text-decoration="none" family="微软雅黑" text-anchor="middle" size="13">已登录</text><text id="ProcessOnText1036" fill="#000000" font-size="13" x="35.65625" y="29.575" font-family="微软雅黑" font-weight="normal" font-style="normal" text-decoration="none" family="微软雅黑" text-anchor="middle" size="13">有userInfo</text><text id="ProcessOnText1037" fill="#000000" font-size="13" x="35.65625" y="45.825" font-family="微软雅黑" font-weight="normal" font-style="normal" text-decoration="none" family="微软雅黑" text-anchor="middle" size="13">有token</text></g></g><g id="ProcessOnG1038" transform="matrix(1.0,0.0,0.0,1.0,401.0,733.0)" opacity="1.0"><path id="ProcessOnPath1039" d="M0.0 0.0L120.0 0.0L120.0 38.0L0.0 38.0Z" stroke="#323232" stroke-width="2.0" stroke-dasharray="none" opacity="1.0" fill="#ffffff"/><g id="ProcessOnG1040" transform="matrix(1.0,0.0,0.0,1.0,10.0,10.875)"><text id="ProcessOnText1041" fill="#000000" font-size="13" x="49.0" y="13.325" font-family="微软雅黑" font-weight="bold" font-style="normal" text-decoration="none" family="微软雅黑" text-anchor="middle" size="13">点击退出登录</text></g></g><g id="ProcessOnG1042" transform="matrix(1.0,0.0,0.0,1.0,405.625,490.0)" opacity="1.0"><path id="ProcessOnPath1043" d="M0.0 35.0L57.6875 0.0L115.375 35.0L57.6875 70.0Z" stroke="#323232" stroke-width="2.0" stroke-dasharray="none" opacity="1.0" fill="#ffffff"/><g id="ProcessOnG1044" transform="matrix(1.0,0.0,0.0,1.0,10.0,19.1)"><text id="ProcessOnText1045" fill="#000000" font-size="13" x="46.6875" y="13.325" font-family="微软雅黑" font-weight="normal" font-style="normal" text-decoration="none" family="微软雅黑" text-anchor="middle" size="13">登录态</text><text id="ProcessOnText1046" fill="#000000" font-size="13" x="46.6875" y="29.575" font-family="微软雅黑" font-weight="normal" font-style="normal" text-decoration="none" family="微软雅黑" text-anchor="middle" size="13">是否过期</text></g></g><g id="ProcessOnG1047"><path id="ProcessOnPath1048" d="M521.0 525.0L560.5 525.0L560.5 525.0L584.7639320225002 525.0" stroke="#323232" stroke-width="2.0" stroke-dasharray="none" fill="none" marker-end="url(#ProcessOnMarker1049)"/><g id="ProcessOnG1051" transform="matrix(1.0,0.0,0.0,1.0,552.8819660112501,516.875)"><path id="ProcessOnPath1052" d="M0 0H13.0V16.25H0Z" fill="#fff" transform="matrix(1.0,0.0,0.0,1.0,-6.5,0.0)"/><text id="ProcessOnText1053" fill="#000000" font-size="13" x="0.0" y="13.325" font-family="微软雅黑" font-weight="normal" font-style="normal" text-decoration="none" family="微软雅黑" text-anchor="middle" size="13">是</text></g></g><g id="ProcessOnG1054" transform="matrix(1.0,0.0,0.0,1.0,600.0,490.0)" opacity="1.0"><path id="ProcessOnPath1055" d="M0.0 0.0L86.0 0.0L86.0 70.0L0.0 70.0Z" stroke="#323232" stroke-width="2.0" stroke-dasharray="none" opacity="1.0" fill="#ffffff"/><g id="ProcessOnG1056" transform="matrix(1.0,0.0,0.0,1.0,10.0,2.5)"><text id="ProcessOnText1057" fill="#000000" font-size="13" x="32.0" y="13.325" font-family="微软雅黑" font-weight="normal" font-style="normal" text-decoration="none" family="微软雅黑" text-anchor="middle" size="13">登录态过</text><text id="ProcessOnText1058" fill="#000000" font-size="13" x="32.0" y="29.575" font-family="微软雅黑" font-weight="normal" font-style="normal" text-decoration="none" family="微软雅黑" text-anchor="middle" size="13">期</text><text id="ProcessOnText1059" fill="#000000" font-size="13" x="32.0" y="45.825" font-family="微软雅黑" font-weight="normal" font-style="normal" text-decoration="none" family="微软雅黑" text-anchor="middle" size="13">有user</text><text id="ProcessOnText1060" fill="#000000" font-size="13" x="32.0" y="62.075" font-family="微软雅黑" font-weight="normal" font-style="normal" text-decoration="none" family="微软雅黑" text-anchor="middle" size="13">token失效</text></g></g><g id="ProcessOnG1061"><path id="ProcessOnPath1062" d="M463.3125 560.0L463.3125 588.5L461.0 588.5L461.0 601.7639320225002" stroke="#323232" stroke-width="2.0" stroke-dasharray="none" fill="none" marker-end="url(#ProcessOnMarker1063)"/><g id="ProcessOnG1065" transform="matrix(1.0,0.0,0.0,1.0,463.3125,573.9132160112501)"><path id="ProcessOnPath1066" d="M0 0H13.0V16.25H0Z" fill="#fff" transform="matrix(1.0,0.0,0.0,1.0,-6.5,0.0)"/><text id="ProcessOnText1067" fill="#000000" font-size="13" x="0.0" y="13.325" font-family="微软雅黑" font-weight="normal" font-style="normal" text-decoration="none" family="微软雅黑" text-anchor="middle" size="13">否</text></g></g><g id="ProcessOnG1068" transform="matrix(1.0,0.0,0.0,1.0,416.3125,617.0)" opacity="1.0"><path id="ProcessOnPath1069" d="M0.0 0.0L89.375 0.0L89.375 64.0L0.0 64.0Z" stroke="#323232" stroke-width="2.0" stroke-dasharray="none" opacity="1.0" fill="#ffffff"/><g id="ProcessOnG1070" transform="matrix(1.0,0.0,0.0,1.0,10.0,7.625)"><text id="ProcessOnText1071" fill="#000000" font-size="13" x="33.6875" y="13.325" font-family="微软雅黑" font-weight="normal" font-style="normal" text-decoration="none" family="微软雅黑" text-anchor="middle" size="13">登录态有效</text><text id="ProcessOnText1072" fill="#000000" font-size="13" x="33.6875" y="29.575" font-family="微软雅黑" font-weight="normal" font-style="normal" text-decoration="none" family="微软雅黑" text-anchor="middle" size="13">有userIn</text><text id="ProcessOnText1073" fill="#000000" font-size="13" x="33.6875" y="45.825" font-family="微软雅黑" font-weight="normal" font-style="normal" text-decoration="none" family="微软雅黑" text-anchor="middle" size="13">有token</text></g></g><g id="ProcessOnG1074"><path id="ProcessOnPath1075" d="M401.0 752.0L318.0 752.0L318.0 752.0L250.2360679774998 752.0" stroke="#323232" stroke-width="2.0" stroke-dasharray="none" fill="none" marker-end="url(#ProcessOnMarker1076)"/></g><g id="ProcessOnG1078" transform="matrix(1.0,0.0,0.0,1.0,399.5,821.0)" opacity="1.0"><path id="ProcessOnPath1079" d="M0.0 0.0L123.0 0.0L123.0 37.0L0.0 37.0Z" stroke="#323232" stroke-width="2.0" stroke-dasharray="none" opacity="1.0" fill="#ffffff"/><g id="ProcessOnG1080" transform="matrix(1.0,0.0,0.0,1.0,10.0,2.25)"><text id="ProcessOnText1081" fill="#000000" font-size="13" x="50.5" y="13.325" font-family="微软雅黑" font-weight="bold" font-style="normal" text-decoration="none" family="微软雅黑" text-anchor="middle" size="13">点击头像</text><text id="ProcessOnText1082" fill="#000000" font-size="13" x="50.5" y="29.575" font-family="微软雅黑" font-weight="bold" font-style="normal" text-decoration="none" family="微软雅黑" text-anchor="middle" size="13">重新登录</text></g></g><g id="ProcessOnG1083"><path id="ProcessOnPath1084" d="M643.0 560.0L643.0 839.5L537.7360679774998 839.5" stroke="#323232" stroke-width="2.0" stroke-dasharray="none" fill="none" marker-end="url(#ProcessOnMarker1085)"/></g><g id="ProcessOnG1087"><path id="ProcessOnPath1088" d="M192.0 787.0L192.0 839.5L384.2639320225002 839.5" stroke="#323232" stroke-width="2.0" stroke-dasharray="none" fill="none" marker-end="url(#ProcessOnMarker1089)"/></g><g id="ProcessOnG1091"><path id="ProcessOnPath1092" d="M364.6875 213.0L192.0 213.0L192.0 701.7639320225002" stroke="#323232" stroke-width="2.0" stroke-dasharray="none" fill="none" marker-end="url(#ProcessOnMarker1093)"/><g id="ProcessOnG1095" transform="matrix(1.0,0.0,0.0,1.0,192.0,362.9132160112501)"><path id="ProcessOnPath1096" d="M0 0H26.0V16.25H0Z" fill="#fff" transform="matrix(1.0,0.0,0.0,1.0,-13.0,0.0)"/><text id="ProcessOnText1097" fill="#000000" font-size="13" x="0.0" y="13.325" font-family="微软雅黑" font-weight="normal" font-style="normal" text-decoration="none" family="微软雅黑" text-anchor="middle" size="13">拒绝</text></g></g><g id="ProcessOnG1098"><path id="ProcessOnPath1099" d="M461.0 858.0L461.0 885.0L461.0 885.0L461.0 896.7639320225002" stroke="#323232" stroke-width="2.0" stroke-dasharray="none" fill="none" marker-end="url(#ProcessOnMarker1100)"/></g><g id="ProcessOnG1102" transform="matrix(1.0,0.0,0.0,1.0,401.0,912.0)" opacity="1.0"><path id="ProcessOnPath1103" d="M0.0 40.0L60.0 0.0L120.0 40.0L60.0 80.0Z" stroke="#323232" stroke-width="2.0" stroke-dasharray="none" opacity="1.0" fill="#ffffff"/><g id="ProcessOnG1104" transform="matrix(1.0,0.0,0.0,1.0,10.0,16.025)"><text id="ProcessOnText1105" fill="#000000" font-size="13" x="49.0" y="13.325" font-family="微软雅黑" font-weight="normal" font-style="normal" text-decoration="none" family="微软雅黑" text-anchor="middle" size="13">检测是否</text><text id="ProcessOnText1106" fill="#000000" font-size="13" x="49.0" y="29.575" font-family="微软雅黑" font-weight="normal" font-style="normal" text-decoration="none" family="微软雅黑" text-anchor="middle" size="13">已经有权使用</text><text id="ProcessOnText1107" fill="#000000" font-size="13" x="49.0" y="45.825" font-family="微软雅黑" font-weight="normal" font-style="normal" text-decoration="none" family="微软雅黑" text-anchor="middle" size="13">用户信息</text></g></g><g id="ProcessOnG1108"><path id="ProcessOnPath1109" d="M461.0 992.0L461.0 1025.0L461.0 1025.0L461.0 1042.7639320225003" stroke="#323232" stroke-width="2.0" stroke-dasharray="none" fill="none" marker-end="url(#ProcessOnMarker1110)"/><g id="ProcessOnG1112" transform="matrix(1.0,0.0,0.0,1.0,461.0,1009.2569660112501)"><path id="ProcessOnPath1113" d="M0 0H13.0V16.25H0Z" fill="#fff" transform="matrix(1.0,0.0,0.0,1.0,-6.5,0.0)"/><text id="ProcessOnText1114" fill="#000000" font-size="13" x="0.0" y="13.325" font-family="微软雅黑" font-weight="normal" font-style="normal" text-decoration="none" family="微软雅黑" text-anchor="middle" size="13">是</text></g></g><g id="ProcessOnG1115" transform="matrix(1.0,0.0,0.0,1.0,390.25,1058.0)" opacity="1.0"><path id="ProcessOnPath1116" d="M0.0 0.0L141.5 0.0L141.5 37.0L0.0 37.0Z" stroke="#323232" stroke-width="2.0" stroke-dasharray="none" opacity="1.0" fill="#ffffff"/><g id="ProcessOnG1117" transform="matrix(1.0,0.0,0.0,1.0,10.0,2.25)"><text id="ProcessOnText1118" fill="#000000" font-size="13" x="59.75" y="13.325" font-family="微软雅黑" font-weight="bold" font-style="normal" text-decoration="none" family="微软雅黑" text-anchor="middle" size="13">直接获取token</text><text id="ProcessOnText1119" fill="#000000" font-size="13" x="59.75" y="29.575" font-family="微软雅黑" font-weight="bold" font-style="normal" text-decoration="none" family="微软雅黑" text-anchor="middle" size="13">已重新登录</text></g></g><g id="ProcessOnG1120" transform="matrix(1.0,0.0,0.0,1.0,587.0,940.5)" opacity="1.0"><path id="ProcessOnPath1121" d="M0.0 0.0L130.0 0.0L130.0 23.0L0.0 23.0Z" stroke="#323232" stroke-width="2.0" stroke-dasharray="none" opacity="1.0" fill="#ffffff"/><g id="ProcessOnG1122" transform="matrix(1.0,0.0,0.0,1.0,10.0,3.375)"><text id="ProcessOnText1123" fill="#000000" font-size="13" x="54.0" y="13.325" font-family="微软雅黑" font-weight="bold" font-style="normal" text-decoration="none" family="微软雅黑" text-anchor="middle" size="13">重新发起权限请求</text></g></g><g id="ProcessOnG1124"><path id="ProcessOnPath1125" d="M717.0 952.0L747.0 952.0L747.0 213.0L572.5485679774998 213.0" stroke="#323232" stroke-width="2.0" stroke-dasharray="none" fill="none" marker-end="url(#ProcessOnMarker1126)"/></g><g id="ProcessOnG1128"><path id="ProcessOnPath1129" d="M521.0 952.0L554.0 952.0L554.0 952.0L571.7639320225002 952.0" stroke="#323232" stroke-width="2.0" stroke-dasharray="none" fill="none" marker-end="url(#ProcessOnMarker1130)"/><g id="ProcessOnG1132" transform="matrix(1.0,0.0,0.0,1.0,546.3819660112501,943.875)"><path id="ProcessOnPath1133" d="M0 0H13.0V16.25H0Z" fill="#fff" transform="matrix(1.0,0.0,0.0,1.0,-6.5,0.0)"/><text id="ProcessOnText1134" fill="#000000" font-size="13" x="0.0" y="13.325" font-family="微软雅黑" font-weight="normal" font-style="normal" text-decoration="none" family="微软雅黑" text-anchor="middle" size="13">否</text></g></g><g id="ProcessOnG1135"><path id="ProcessOnPath1136" d="M461.0 1095.0L461.0 1112.0L461.0 1112.0L461.0 1113.7639320225003" stroke="#323232" stroke-width="2.0" stroke-dasharray="none" fill="none" marker-end="url(#ProcessOnMarker1137)"/></g><g id="ProcessOnG1139" transform="matrix(1.0,0.0,0.0,1.0,412.375,1129.0)" opacity="1.0"><path id="ProcessOnPath1140" d="M0.0 25.5C0.0 -8.5 97.25 -8.5 97.25 25.5C97.25 59.5 0.0 59.5 0.0 25.5Z" stroke="#323232" stroke-width="2.0" stroke-dasharray="none" opacity="1.0" fill="#ffffff"/><g id="ProcessOnG1141" transform="matrix(1.0,0.0,0.0,1.0,10.0,14.25)"><text id="ProcessOnText1142" fill="#000000" font-size="18" x="37.625" y="18.45" font-family="微软雅黑" font-weight="bold" font-style="normal" text-decoration="none" family="微软雅黑" text-anchor="middle" size="18">结束</text></g></g><g id="ProcessOnG1143"><path id="ProcessOnPath1144" d="M463.0 343.0L463.0 364.5L462.96875 364.5L462.96875 370.7639320225002" stroke="#323232" stroke-width="2.0" stroke-dasharray="none" fill="none" marker-end="url(#ProcessOnMarker1145)"/></g><g id="ProcessOnG1147"><path id="ProcessOnPath1148" d="M462.96875 450.0L462.96875 470.0L463.3125 470.0L463.3125 474.7639320225002" stroke="#323232" stroke-width="2.0" stroke-dasharray="none" fill="none" marker-end="url(#ProcessOnMarker1149)"/></g><g id="ProcessOnG1151"><path id="ProcessOnPath1152" d="M461.0 681.0L461.0 707.0L461.0 707.0L461.0 717.7639320225002" stroke="#323232" stroke-width="2.0" stroke-dasharray="none" fill="none" marker-end="url(#ProcessOnMarker1153)"/></g><g id="ProcessOnG1155"><path id="ProcessOnPath1156" d="M460.125 139.0L460.125 156.0L461.0 156.0L461.0 157.7639320225002" stroke="#323232" stroke-width="2.0" stroke-dasharray="none" fill="none" marker-end="url(#ProcessOnMarker1157)"/></g></g></g></svg>